<svg version="1.1" viewBox="0.0 0.0 960.0 720.0" fill="none" stroke="none" stroke-linecap="square" stroke-miterlimit="10" xmlns:xlink="http://www.w3.org/1999/xlink" xmlns="http://www.w3.org/2000/svg"><clipPath id="p.0"><path d="m0 0l960.0 0l0 720.0l-960.0 0l0 -720.0z" clip-rule="nonzero"/></clipPath><g clip-path="url(#p.0)"><path fill="#000000" fill-opacity="0.0" d="m0 0l960.0 0l0 720.0l-960.0 0z" fill-rule="evenodd"/><path fill="#8e7cc3" d="m16.931759 263.4147l0 0c0 -34.25035 58.4145 -62.015747 130.47244 -62.015747l0 0c72.05794 0 130.47244 27.765396 130.47244 62.015747l0 0c0 34.250336 -58.414505 62.015747 -130.47244 62.015747l0 0c-72.057945 0 -130.47244 -27.765411 -130.47244 -62.015747z" fill-rule="evenodd"/><path stroke="#000000" stroke-width="1.0" stroke-linejoin="round" stroke-linecap="butt" d="m16.931759 263.4147l0 0c0 -34.25035 58.4145 -62.015747 130.47244 -62.015747l0 0c72.05794 0 130.47244 27.765396 130.47244 62.015747l0 0c0 34.250336 -58.414505 62.015747 -130.47244 62.015747l0 0c-72.057945 0 -130.47244 -27.765411 -130.47244 -62.015747z" fill-rule="evenodd"/><path fill="#434343" d="m80.65519 252.41719l8.765625 0q2.609375 0 3.890625 0.21875q1.28125 0.203125 2.28125 0.890625q1.015625 0.6875 1.6875 1.84375q0.671875 1.1406403 0.671875 2.5625153q0 1.546875 -0.828125 2.84375q-0.828125 1.28125 -2.25 1.921875q2.0 0.578125 3.078125 1.984375q1.078125 1.40625 1.078125 3.3125q0 1.5 -0.703125 2.921875q-0.6875 1.40625 -1.890625 2.25q-1.203125 0.84375 -2.96875 1.03125q-1.109375 0.125 -5.34375 0.15625l-7.46875 0l0 -21.937515zm4.421875 3.6406403l0 5.078125l2.90625 0q2.59375 0 3.21875 -0.078125q1.140625 -0.125 1.78125 -0.78125q0.65625 -0.65625 0.65625 -1.71875q0 -1.015625 -0.5625 -1.640625q-0.5625 -0.640625 -1.65625 -0.78125q-0.671875 -0.078125 -3.796875 -0.078125l-2.546875 0zm0 8.734375l0 5.859375l4.109375 0q2.390625 0 3.03125 -0.125q0.984375 -0.1875 1.609375 -0.875q0.625 -0.703125 0.625 -1.875q0 -0.984375 -0.484375 -1.671875q-0.46875 -0.6875 -1.375 -1.0q-0.90625 -0.3125 -3.9375 -0.3125l-3.578125 0zm20.810837 -1.484375l-3.8125 -0.6875q0.640625 -2.3125 2.203125 -3.40625q1.578125 -1.109375 4.671875 -1.109375q2.828125 0 4.203125 0.671875q1.375 0.65625 1.9375 1.6875q0.5625 1.015625 0.5625 3.75l-0.046875 4.921875q0 2.09375 0.203125 3.09375q0.203125 0.984375 0.75 2.125l-4.15625 0q-0.171875 -0.421875 -0.40625 -1.25q-0.109375 -0.359375 -0.15625 -0.484375q-1.078125 1.046875 -2.3125 1.578125q-1.21875 0.515625 -2.609375 0.515625q-2.453125 0 -3.875 -1.328125q-1.40625 -1.34375 -1.40625 -3.375q0 -1.34375 0.640625 -2.390625q0.640625 -1.0625 1.796875 -1.625q1.171875 -0.5625 3.359375 -0.984375q2.9375 -0.546875 4.078125 -1.03125l0 -0.421875q0 -1.203125 -0.59375 -1.71875q-0.59375 -0.515625 -2.265625 -0.515625q-1.125 0 -1.75 0.4375q-0.625 0.4375 -1.015625 1.546875zm5.625 3.40625q-0.8125 0.28125 -2.5625 0.65625q-1.75 0.375 -2.28125 0.734375q-0.828125 0.578125 -0.828125 1.46875q0 0.890625 0.65625 1.53125q0.65625 0.640625 1.6875 0.640625q1.125 0 2.15625 -0.75q0.765625 -0.5625 1.015625 -1.390625q0.15625 -0.53125 0.15625 -2.046875l0 -0.84375zm22.143288 -3.5625l-4.140625 0.75q-0.21875 -1.234375 -0.96875 -1.859375q-0.7343674 -0.640625 -1.9062424 -0.640625q-1.578125 0 -2.515625 1.09375q-0.9375 1.078125 -0.9375 3.625q0 2.828125 0.953125 4.0q0.953125 1.171875 2.546875 1.171875q1.203125 0 1.9687424 -0.6875q0.765625 -0.6875 1.078125 -2.34375l4.125 0.703125q-0.640625 2.84375 -2.46875 4.296875q-1.828125 1.453125 -4.8906174 1.453125q-3.484375 0 -5.5625 -2.203125q-2.078125 -2.203125 -2.078125 -6.09375q0 -3.9375 2.078125 -6.125q2.09375 -2.1875 5.640625 -2.1875q2.9062424 0 4.6093674 1.25q1.71875 1.25 2.46875 3.796875zm3.0339203 11.203125l0 -21.937515l4.203125 0l0 11.64064l4.9375 -5.59375l5.171875 0l-5.4375 5.796875l5.828125 10.09375l-4.53125 0l-4.0 -7.140625l-1.96875 2.046875l0 5.09375l-4.203125 0zm16.72142 -5.859375l0 -4.203125l8.265625 0l0 4.203125l-8.265625 0zm19.89627 0.796875l4.1875 0.703125q-0.796875 2.3125 -2.546875 3.515625q-1.75 1.203125 -4.359375 1.203125q-4.15625 0 -6.140625 -2.703125q-1.578125 -2.171875 -1.578125 -5.484375q0 -3.953125 2.0625 -6.1875q2.078125 -2.234375 5.234375 -2.234375q3.546875 0 5.59375 2.34375q2.046875 2.328125 1.96875 7.171875l-10.546875 0q0.046875 1.875 1.015625 2.921875q0.984375 1.03125 2.4375 1.03125q0.984375 0 1.65625 -0.53125q0.671875 -0.546875 1.015625 -1.75zm0.234375 -4.25q-0.046875 -1.828125 -0.953125 -2.765625q-0.890625 -0.953125 -2.171875 -0.953125q-1.375 0 -2.28125 1.0q-0.890625 1.0 -0.875 2.71875l6.28125 0zm22.06517 9.3125l-4.203125 0l0 -8.109375q0 -2.578125 -0.265625 -3.328125q-0.265625 -0.765625 -0.875 -1.171875q-0.609375 -0.421875 -1.46875 -0.421875q-1.09375 0 -1.96875 0.59375q-0.859375 0.59375 -1.1875 1.59375q-0.3125 0.984375 -0.3125 3.640625l0 7.203125l-4.203125 0l0 -15.890625l3.90625 0l0 2.328125q2.078125 -2.6875 5.234375 -2.6875q1.390625 0 2.546875 0.5q1.15625 0.5 1.75 1.28125q0.59375 0.765625 0.8125 1.765625q0.234375 0.984375 0.234375 2.828125l0 9.875zm18.851074 0l-3.90625 0l0 -2.328125q-0.96875 1.359375 -2.296875 2.03125q-1.328125 0.65625 -2.671875 0.65625q-2.734375 0 -4.703125 -2.203125q-1.953125 -2.21875 -1.953125 -6.171875q0 -4.03125 1.90625 -6.125q1.90625 -2.109375 4.8125 -2.109375q2.65625 0 4.609375 2.203125l0 -7.8906403l4.203125 0l0 21.937515zm-11.234375 -8.296875q0 2.546875 0.703125 3.6875q1.03125 1.640625 2.84375 1.640625q1.453125 0 2.46875 -1.234375q1.03125 -1.234375 1.03125 -3.6875q0 -2.734375 -1.0 -3.9375q-0.984375 -1.203125 -2.515625 -1.203125q-1.5 0 -2.515625 1.1875q-1.015625 1.1875 -1.015625 3.546875z" fill-rule="nonzero"/><path fill="#93c47d" d="m342.24933 263.4147l0 0c0 -34.25035 58.41452 -62.015747 130.47244 -62.015747l0 0c72.05795 0 130.47244 27.765396 130.47244 62.015747l0 0c0 34.250336 -58.41449 62.015747 -130.47244 62.015747l0 0c-72.05792 0 -130.47244 -27.765411 -130.47244 -62.015747z" fill-rule="evenodd"/><path stroke="#000000" stroke-width="1.0" stroke-linejoin="round" stroke-linecap="butt" d="m342.24933 263.4147l0 0c0 -34.25035 58.41452 -62.015747 130.47244 -62.015747l0 0c72.05795 0 130.47244 27.765396 130.47244 62.015747l0 0c0 34.250336 -58.41449 62.015747 -130.47244 62.015747l0 0c-72.05792 0 -130.47244 -27.765411 -130.47244 -62.015747z" fill-rule="evenodd"/><path fill="#434343" d="m425.55954 252.41719l8.765625 0q2.609375 0 3.890625 0.21875q1.28125 0.203125 2.28125 0.890625q1.015625 0.6875 1.6875 1.84375q0.671875 1.1406403 0.671875 2.5625153q0 1.546875 -0.828125 2.84375q-0.828125 1.28125 -2.25 1.921875q2.0 0.578125 3.078125 1.984375q1.078125 1.40625 1.078125 3.3125q0 1.5 -0.703125 2.921875q-0.6875 1.40625 -1.890625 2.25q-1.203125 0.84375 -2.96875 1.03125q-1.109375 0.125 -5.34375 0.15625l-7.46875 0l0 -21.937515zm4.421875 3.6406403l0 5.078125l2.90625 0q2.59375 0 3.21875 -0.078125q1.140625 -0.125 1.78125 -0.78125q0.65625 -0.65625 0.65625 -1.71875q0 -1.015625 -0.5625 -1.640625q-0.5625 -0.640625 -1.65625 -0.78125q-0.671875 -0.078125 -3.796875 -0.078125l-2.546875 0zm0 8.734375l0 5.859375l4.109375 0q2.390625 0 3.03125 -0.125q0.984375 -0.1875 1.609375 -0.875q0.625 -0.703125 0.625 -1.875q0 -0.984375 -0.484375 -1.671875q-0.46875 -0.6875 -1.375 -1.0q-0.90625 -0.3125 -3.9375 -0.3125l-3.578125 0zm21.701477 9.5625l-4.21875 0l0 -15.890625l3.90625 0l0 2.25q1.015625 -1.59375 1.8125 -2.09375q0.796875 -0.515625 1.8125 -0.515625q1.4375 0 2.765625 0.78125l-1.296875 3.671875q-1.0625 -0.6875 -1.96875 -0.6875q-0.890625 0 -1.5 0.484375q-0.609375 0.484375 -0.96875 1.765625q-0.34375 1.265625 -0.34375 5.328125l0 4.90625zm6.930176 -8.171875q0 -2.09375 1.03125 -4.046875q1.03125 -1.96875 2.921875 -3.0q1.890625 -1.03125 4.234375 -1.03125q3.59375 0 5.90625 2.34375q2.3125 2.328125 2.3125 5.90625q0 3.609375 -2.328125 5.984375q-2.328125 2.375 -5.859375 2.375q-2.1875 0 -4.171875 -0.984375q-1.984375 -0.984375 -3.015625 -2.890625q-1.03125 -1.921875 -1.03125 -4.65625zm4.296875 0.21875q0 2.375 1.125 3.640625q1.125 1.25 2.78125 1.25q1.640625 0 2.75 -1.25q1.125 -1.265625 1.125 -3.671875q0 -2.328125 -1.125 -3.578125q-1.109375 -1.265625 -2.75 -1.265625q-1.65625 0 -2.78125 1.265625q-1.125 1.25 -1.125 3.609375zm15.241699 7.953125l0 -21.937515l4.203125 0l0 11.64064l4.9375 -5.59375l5.171875 0l-5.4375 5.796875l5.828125 10.09375l-4.53125 0l-4.0 -7.140625l-1.96875 2.046875l0 5.09375l-4.203125 0zm26.408905 -5.0625l4.1875 0.703125q-0.796875 2.3125 -2.546875 3.515625q-1.75 1.203125 -4.359375 1.203125q-4.15625 0 -6.140625 -2.703125q-1.578125 -2.171875 -1.578125 -5.484375q0 -3.953125 2.0625 -6.1875q2.078125 -2.234375 5.234375 -2.234375q3.546875 0 5.59375 2.34375q2.046875 2.328125 1.96875 7.171875l-10.546875 0q0.046875 1.875 1.015625 2.921875q0.984375 1.03125 2.4375 1.03125q0.984375 0 1.65625 -0.53125q0.671875 -0.546875 1.015625 -1.75zm0.234375 -4.25q-0.046875 -1.828125 -0.953125 -2.765625q-0.890625 -0.953125 -2.171875 -0.953125q-1.375 0 -2.28125 1.0q-0.890625 1.0 -0.875 2.71875l6.28125 0zm11.643311 9.3125l-4.21875 0l0 -15.890625l3.90625 0l0 2.25q1.015625 -1.59375 1.8125 -2.09375q0.796875 -0.515625 1.8125 -0.515625q1.4375 0 2.765625 0.78125l-1.296875 3.671875q-1.0625 -0.6875 -1.96875 -0.6875q-0.890625 0 -1.5 0.484375q-0.609375 0.484375 -0.96875 1.765625q-0.34375 1.265625 -0.34375 5.328125l0 4.90625z" fill-rule="nonzero"/><path fill="#e06666" d="m667.56696 263.4147l0 0c0 -34.25035 58.41449 -62.015747 130.47241 -62.015747l0 0c72.05792 0 130.47247 27.765396 130.47247 62.015747l0 0c0 34.250336 -58.41455 62.015747 -130.47247 62.015747l0 0c-72.05792 0 -130.47241 -27.765411 -130.47241 -62.015747z" fill-rule="evenodd"/><path stroke="#e06666" stroke-width="1.0" stroke-linejoin="round" stroke-linecap="butt" d="m667.56696 263.4147l0 0c0 -34.25035 58.41449 -62.015747 130.47241 -62.015747l0 0c72.05792 0 130.47247 27.765396 130.47247 62.015747l0 0c0 34.250336 -58.41455 62.015747 -130.47247 62.015747l0 0c-72.05792 0 -130.47241 -27.765411 -130.47241 -62.015747z" fill-rule="evenodd"/><path fill="#434343" d="m749.5796 266.2922l4.296875 1.359375q-0.984375 3.59375 -3.28125 5.34375q-2.296875 1.734375 -5.828125 1.734375q-4.375 0 -7.1875 -2.984375q-2.8125 -2.984375 -2.8125 -8.171875q0 -5.46875 2.828125 -8.500015q2.828125 -3.03125 7.4375 -3.03125q4.03125 0 6.546875 2.375q1.5 1.40625 2.234375 4.0468903l-4.375 1.046875q-0.390625 -1.71875 -1.625 -2.703125q-1.234375 -0.98439026 -3.0 -0.98439026q-2.4375 0 -3.96875 1.7500153q-1.515625 1.75 -1.515625 5.671875q0 4.15625 1.5 5.9375q1.5 1.765625 3.890625 1.765625q1.765625 0 3.03125 -1.125q1.28125 -1.125 1.828125 -3.53125zm12.107727 8.0625l-4.21875 0l0 -15.890625l3.90625 0l0 2.25q1.015625 -1.59375 1.8125 -2.09375q0.796875 -0.515625 1.8125 -0.515625q1.4375 0 2.765625 0.78125l-1.296875 3.671875q-1.0625 -0.6875 -1.96875 -0.6875q-0.890625 0 -1.5 0.484375q-0.609375 0.484375 -0.96875 1.765625q-0.34375 1.265625 -0.34375 5.328125l0 4.90625zm11.039551 -11.046875l-3.8125 -0.6875q0.640625 -2.3125 2.203125 -3.40625q1.578125 -1.109375 4.671875 -1.109375q2.828125 0 4.203125 0.671875q1.375 0.65625 1.9375 1.6875q0.5625 1.015625 0.5625 3.75l-0.046875 4.921875q0 2.09375 0.203125 3.09375q0.203125 0.984375 0.75 2.125l-4.15625 0q-0.171875 -0.421875 -0.40625 -1.25q-0.109375 -0.359375 -0.15625 -0.484375q-1.078125 1.046875 -2.3125 1.578125q-1.21875 0.515625 -2.609375 0.515625q-2.453125 0 -3.875 -1.328125q-1.40625 -1.34375 -1.40625 -3.375q0 -1.34375 0.640625 -2.390625q0.640625 -1.0625 1.796875 -1.625q1.171875 -0.5625 3.359375 -0.984375q2.9375 -0.546875 4.078125 -1.03125l0 -0.421875q0 -1.203125 -0.59375 -1.71875q-0.59375 -0.515625 -2.265625 -0.515625q-1.125 0 -1.75 0.4375q-0.625 0.4375 -1.015625 1.546875zm5.625 3.40625q-0.8125 0.28125 -2.5625 0.65625q-1.75 0.375 -2.28125 0.734375q-0.828125 0.578125 -0.828125 1.46875q0 0.890625 0.65625 1.53125q0.65625 0.640625 1.6875 0.640625q1.125 0 2.15625 -0.75q0.765625 -0.5625 1.015625 -1.390625q0.15625 -0.53125 0.15625 -2.046875l0 -0.84375zm11.252686 7.640625l-5.03125 -15.890625l4.078125 0l2.984375 10.40625l2.734375 -10.40625l4.0625 0l2.640625 10.40625l3.046875 -10.40625l4.140625 0l-5.109375 15.890625l-4.03125 0l-2.75 -10.21875l-2.6875 10.21875l-4.078125 0zm20.876648 0l0 -21.937515l4.203125 0l0 21.937515l-4.203125 0zm8.517273 -18.046875l0 -3.8906403l4.203125 0l0 3.8906403l-4.203125 0zm0 18.046875l0 -15.890625l4.203125 0l0 15.890625l-4.203125 0zm22.970459 0l-4.203125 0l0 -8.109375q0 -2.578125 -0.265625 -3.328125q-0.265625 -0.765625 -0.875 -1.171875q-0.609375 -0.421875 -1.46875 -0.421875q-1.09375 0 -1.96875 0.59375q-0.859375 0.59375 -1.1875 1.59375q-0.3125 0.984375 -0.3125 3.640625l0 7.203125l-4.203125 0l0 -15.890625l3.90625 0l0 2.328125q2.078125 -2.6875 5.234375 -2.6875q1.390625 0 2.546875 0.5q1.15625 0.5 1.75 1.28125q0.59375 0.765625 0.8125 1.765625q0.234375 0.984375 0.234375 2.828125l0 9.875zm3.8822632 1.046875l4.796875 0.578125q0.125 0.84375 0.5625 1.15625q0.59375 0.453125 1.890625 0.453125q1.640625 0 2.46875 -0.5q0.546875 -0.328125 0.828125 -1.0625q0.203125 -0.515625 0.203125 -1.921875l0 -2.328125q-1.890625 2.578125 -4.765625 2.578125q-3.203125 0 -5.078125 -2.703125q-1.46875 -2.140625 -1.46875 -5.328125q0 -4.0 1.921875 -6.109375q1.9375 -2.109375 4.796875 -2.109375q2.9375 0 4.859375 2.578125l0 -2.21875l3.9375 0l0 14.265625q0 2.8125 -0.46875 4.203125q-0.453125 1.390625 -1.296875 2.171875q-0.84375 0.796875 -2.25 1.25q-1.390625 0.453125 -3.53125 0.453125q-4.046875 0 -5.734375 -1.390625q-1.6875 -1.375 -1.6875 -3.5q0 -0.21875 0.015625 -0.515625zm3.75 -9.328125q0 2.53125 0.984375 3.71875q0.984375 1.171875 2.421875 1.171875q1.546875 0 2.609375 -1.203125q1.0625 -1.21875 1.0625 -3.578125q0 -2.46875 -1.03125 -3.65625q-1.015625 -1.203125 -2.5625 -1.203125q-1.515625 0 -2.5 1.171875q-0.984375 1.171875 -0.984375 3.578125z" fill-rule="nonzero"/><path fill="#ffd966" d="m342.24933 458.36615l0 0c0 -13.936859 56.971497 -25.234924 127.24936 -25.234924c70.27786 0 127.24936 11.298065 127.24936 25.234924l0 100.93964c0 13.936829 -56.971497 25.234924 -127.24936 25.234924c-70.27786 0 -127.24936 -11.298096 -127.24936 -25.234924z" fill-rule="evenodd"/><path fill="#000000" fill-opacity="0.0" d="m596.74805 458.36615l0 0c0 13.936859 -56.971497 25.234894 -127.24936 25.234894c-70.27786 0 -127.24936 -11.298035 -127.24936 -25.234894" fill-rule="evenodd"/><path fill="#000000" fill-opacity="0.0" d="m342.24933 458.36615l0 0c0 -13.936859 56.971497 -25.234924 127.24936 -25.234924c70.27786 0 127.24936 11.298065 127.24936 25.234924l0 100.93964c0 13.936829 -56.971497 25.234924 -127.24936 25.234924c-70.27786 0 -127.24936 -11.298096 -127.24936 -25.234924z" fill-rule="evenodd"/><path stroke="#000000" stroke-width="1.0" stroke-linejoin="round" stroke-linecap="butt" d="m596.74805 458.36615l0 0c0 13.936859 -56.971497 25.234894 -127.24936 25.234894c-70.27786 0 -127.24936 -11.298035 -127.24936 -25.234894" fill-rule="evenodd"/><path stroke="#000000" stroke-width="1.0" stroke-linejoin="round" stroke-linecap="butt" d="m342.24933 458.36615l0 0c0 -13.936859 56.971497 -25.234924 127.24936 -25.234924c70.27786 0 127.24936 11.298065 127.24936 25.234924l0 100.93964c0 13.936829 -56.971497 25.234924 -127.24936 25.234924c-70.27786 0 -127.24936 -11.298096 -127.24936 -25.234924z" fill-rule="evenodd"/><path fill="#434343" d="m399.31104 532.39343l0 -21.93753l6.625 0l3.984375 14.9687805l3.9375 -14.9687805l6.640625 0l0 21.93753l-4.109375 0l0 -17.28125l-4.359375 17.28125l-4.265625 0l-4.34375 -17.28125l0 17.28125l-4.109375 0zm24.599396 -8.171875q0 -2.09375 1.03125 -4.046875q1.03125 -1.96875 2.921875 -3.0q1.890625 -1.03125 4.234375 -1.03125q3.59375 0 5.90625 2.34375q2.3125 2.328125 2.3125 5.90625q0 3.609375 -2.328125 5.984375q-2.328125 2.375 -5.859375 2.375q-2.1875 0 -4.171875 -0.984375q-1.984375 -0.984375 -3.015625 -2.890625q-1.03125 -1.921875 -1.03125 -4.65625zm4.296875 0.21875q0 2.375 1.125 3.640625q1.125 1.25 2.78125 1.25q1.640625 0 2.75 -1.25q1.125 -1.265625 1.125 -3.671875q0 -2.328125 -1.125 -3.578125q-1.109375 -1.265625 -2.75 -1.265625q-1.65625 0 -2.78125 1.265625q-1.125 1.25 -1.125 3.609375zm29.851044 7.953125l-4.203125 0l0 -8.109375q0 -2.578125 -0.265625 -3.328125q-0.265625 -0.765625 -0.875 -1.171875q-0.609375 -0.421875 -1.46875 -0.421875q-1.09375 0 -1.96875 0.59375q-0.859375 0.59375 -1.1875 1.59375q-0.3125 0.984375 -0.3125 3.640625l0 7.203125l-4.203125 0l0 -15.890625l3.90625 0l0 2.328125q2.078125 -2.6875 5.234375 -2.6875q1.390625 0 2.546875 0.5q1.15625 0.5 1.75 1.28125q0.59375 0.765625 0.8125 1.765625q0.234375 0.984375 0.234375 2.828125l0 9.875zm3.8823242 1.046875l4.796875 0.578125q0.125 0.84375 0.5625 1.15625q0.59375 0.453125 1.890625 0.453125q1.640625 0 2.46875 -0.5q0.546875 -0.328125 0.828125 -1.0625q0.203125 -0.515625 0.203125 -1.921875l0 -2.328125q-1.890625 2.578125 -4.765625 2.578125q-3.203125 0 -5.078125 -2.703125q-1.46875 -2.140625 -1.46875 -5.328125q0 -4.0 1.921875 -6.109375q1.9375 -2.109375 4.796875 -2.109375q2.9375 0 4.859375 2.578125l0 -2.21875l3.9375 0l0 14.265625q0 2.8125 -0.46875 4.203125q-0.453125 1.390625 -1.296875 2.171875q-0.84375 0.796875 -2.25 1.25q-1.390625 0.453125 -3.53125 0.453125q-4.046875 0 -5.734375 -1.390625q-1.6875 -1.375 -1.6875 -3.5q0 -0.21875 0.015625 -0.515625zm3.75 -9.328125q0 2.53125 0.984375 3.71875q0.984375 1.171875 2.421875 1.171875q1.546875 0 2.609375 -1.203125q1.0625 -1.21875 1.0625 -3.578125q0 -2.46875 -1.03125 -3.65625q-1.015625 -1.203125 -2.5625 -1.203125q-1.515625 0 -2.5 1.171875q-0.984375 1.171875 -0.984375 3.578125zm14.397919 0.109375q0 -2.09375 1.03125 -4.046875q1.03125 -1.96875 2.921875 -3.0q1.890625 -1.03125 4.234375 -1.03125q3.59375 0 5.90625 2.34375q2.3125 2.328125 2.3125 5.90625q0 3.609375 -2.328125 5.984375q-2.328125 2.375 -5.859375 2.375q-2.1875 0 -4.171875 -0.984375q-1.984375 -0.984375 -3.015625 -2.890625q-1.03125 -1.921875 -1.03125 -4.65625zm4.296875 0.21875q0 2.375 1.125 3.640625q1.125 1.25 2.78125 1.25q1.640625 0 2.75 -1.25q1.125 -1.265625 1.125 -3.671875q0 -2.328125 -1.125 -3.578125q-1.109375 -1.265625 -2.75 -1.265625q-1.65625 0 -2.78125 1.265625q-1.125 1.25 -1.125 3.609375zm15.413574 -13.9844055l8.09375 0q2.734375 0 4.1718445 0.40625q1.9375 0.578125 3.3125 2.0312805q1.375 1.453125 2.09375 3.5625q0.71875 2.09375 0.71875 5.171875q0 2.71875 -0.671875 4.671875q-0.828125 2.390625 -2.34375 3.875q-1.15625 1.125 -3.125 1.75q-1.4530945 0.46875 -3.9218445 0.46875l-8.328125 0l0 -21.93753zm4.421875 3.7031555l0 14.53125l3.3125 0q1.859375 0 2.6875 -0.203125q1.078125 -0.265625 1.7812195 -0.90625q0.71875 -0.65625 1.15625 -2.125q0.453125 -1.46875 0.453125 -4.015625q0 -2.546875 -0.453125 -3.90625q-0.4375 -1.359375 -1.2499695 -2.125q-0.8125 -0.765625 -2.046875 -1.03125q-0.9375 -0.21875 -3.640625 -0.21875l-2.0 0zm17.748322 -3.7031555l8.765625 0q2.609375 0 3.890625 0.21875q1.28125 0.203125 2.28125 0.890625q1.015625 0.6875305 1.6875 1.8437805q0.671875 1.140625 0.671875 2.5625q0 1.546875 -0.828125 2.84375q-0.828125 1.28125 -2.25 1.921875q2.0 0.578125 3.078125 1.984375q1.078125 1.40625 1.078125 3.3125q0 1.5 -0.703125 2.921875q-0.6875 1.40625 -1.890625 2.25q-1.203125 0.84375 -2.96875 1.03125q-1.109375 0.125 -5.34375 0.15625l-7.46875 0l0 -21.93753zm4.421875 3.6406555l0 5.078125l2.90625 0q2.59375 0 3.21875 -0.078125q1.140625 -0.125 1.78125 -0.78125q0.65625 -0.65625 0.65625 -1.71875q0 -1.015625 -0.5625 -1.640625q-0.5625 -0.640625 -1.65625 -0.78125q-0.671875 -0.078125 -3.796875 -0.078125l-2.546875 0zm0 8.734375l0 5.859375l4.109375 0q2.390625 0 3.03125 -0.125q0.984375 -0.1875 1.609375 -0.875q0.625 -0.703125 0.625 -1.875q0 -0.984375 -0.484375 -1.671875q-0.46875 -0.6875 -1.375 -1.0q-0.90625 -0.3125 -3.9375 -0.3125l-3.578125 0z" fill-rule="nonzero"/><path fill="#999999" d="m286.47244 257.36746l35.08661 0l0 -6.0472565l12.094482 12.094498l-12.094482 12.094482l0 -6.047241l-35.08661 0z" fill-rule="evenodd"/><path stroke="#000000" stroke-width="1.0" stroke-linejoin="round" stroke-linecap="butt" d="m286.47244 257.36746l35.08661 0l0 -6.0472565l12.094482 12.094498l-12.094482 12.094482l0 -6.047241l-35.08661 0z" fill-rule="evenodd"/><path fill="#999999" d="m611.79004 257.36746l35.08661 0l0 -6.0472565l12.094482 12.094498l-12.094482 12.094482l0 -6.047241l-35.08661 0z" fill-rule="evenodd"/><path stroke="#000000" stroke-width="1.0" stroke-linejoin="round" stroke-linecap="butt" d="m611.79004 257.36746l35.08661 0l0 -6.0472565l12.094482 12.094498l-12.094482 12.094482l0 -6.047241l-35.08661 0z" fill-rule="evenodd"/><path fill="#999999" d="m761.82 331.19778l24.125977 0l0 24.125977l-7.3441772 -7.3441772l-153.00787 153.00787l7.3441772 7.3441772l-24.125977 0l0 -24.125977l7.3441772 7.344208l153.00787 -153.00787z" fill-rule="evenodd"/><path stroke="#000000" stroke-width="1.0" stroke-linejoin="round" stroke-linecap="butt" d="m761.82 331.19778l24.125977 0l0 24.125977l-7.3441772 -7.3441772l-153.00787 153.00787l7.3441772 7.3441772l-24.125977 0l0 -24.125977l7.3441772 7.344208l153.00787 -153.00787z" fill-rule="evenodd"/><path fill="#999999" d="m152.61642 355.10358l0 -24.126007l24.125992 0l-7.3441925 7.344208l153.44882 153.44882l7.3441772 -7.344208l0 24.126007l-24.125977 0l7.3441772 -7.344208l-153.4488 -153.44882z" fill-rule="evenodd"/><path stroke="#000000" stroke-width="1.0" stroke-linejoin="round" stroke-linecap="butt" d="m152.61642 355.10358l0 -24.126007l24.125992 0l-7.3441925 7.344208l153.44882 153.44882l7.3441772 -7.344208l0 24.126007l-24.125977 0l7.3441772 -7.344208l-153.4488 -153.44882z" fill-rule="evenodd"/><path fill="#999999" d="m452.4462 348.76117l17.055115 -17.055115l17.055115 17.055115l-10.383484 0l0 61.039368l10.383484 0l-17.055115 17.055115l-17.055115 -17.055115l10.383484 0l0 -61.039368z" fill-rule="evenodd"/><path stroke="#000000" stroke-width="1.0" stroke-linejoin="round" stroke-linecap="butt" d="m452.4462 348.76117l17.055115 -17.055115l17.055115 17.055115l-10.383484 0l0 61.039368l10.383484 0l-17.055115 17.055115l-17.055115 -17.055115l10.383484 0l0 -61.039368z" fill-rule="evenodd"/><path fill="#6fa8dc" d="m16.931759 74.51706l0 0c0 -34.25035 58.4145 -62.015747 130.47244 -62.015747l0 0c72.05794 0 130.47244 27.765396 130.47244 62.015747l0 0c0 34.25035 -58.414505 62.015747 -130.47244 62.015747l0 0c-72.057945 0 -130.47244 -27.765396 -130.47244 -62.015747z" fill-rule="evenodd"/><path stroke="#000000" stroke-width="1.0" stroke-linejoin="round" stroke-linecap="butt" d="m16.931759 74.51706l0 0c0 -34.25035 58.4145 -62.015747 130.47244 -62.015747l0 0c72.05794 0 130.47244 27.765396 130.47244 62.015747l0 0c0 34.25035 -58.414505 62.015747 -130.47244 62.015747l0 0c-72.057945 0 -130.47244 -27.765396 -130.47244 -62.015747z" fill-rule="evenodd"/><path fill="#434343" d="m121.09087 77.39456l4.296875 1.359375q-0.984375 3.59375 -3.28125 5.34375q-2.296875 1.734375 -5.828125 1.734375q-4.375 0 -7.1875 -2.984375q-2.8125 -2.984375 -2.8125 -8.171875q0 -5.46875 2.828125 -8.5q2.828125 -3.03125 7.4375 -3.03125q4.03125 0 6.546875 2.375q1.5 1.40625 2.234375 4.046875l-4.375 1.046875q-0.390625 -1.71875 -1.625 -2.703125q-1.234375 -0.984375 -3.0 -0.984375q-2.4375 0 -3.96875 1.75q-1.515625 1.75 -1.515625 5.671875q0 4.15625 1.5 5.9375q1.5 1.765625 3.890625 1.765625q1.765625 0 3.03125 -1.125q1.28125 -1.125 1.828125 -3.53125zm8.076454 8.0625l0 -21.9375l4.203125 0l0 21.9375l-4.203125 0zm8.517288 -18.046875l0 -3.890625l4.203125 0l0 3.890625l-4.203125 0zm0 18.046875l0 -15.890625l4.203125 0l0 15.890625l-4.203125 0zm17.720413 -5.0625l4.1875 0.703125q-0.796875 2.3125 -2.546875 3.515625q-1.75 1.203125 -4.359375 1.203125q-4.15625 0 -6.140625 -2.703125q-1.578125 -2.171875 -1.578125 -5.484375q0 -3.953125 2.0625 -6.1875q2.078125 -2.234375 5.234375 -2.234375q3.546875 0 5.59375 2.34375q2.046875 2.328125 1.96875 7.171875l-10.546875 0q0.046875 1.875 1.015625 2.921875q0.984375 1.03125 2.4375 1.03125q0.984375 0 1.65625 -0.53125q0.671875 -0.546875 1.015625 -1.75zm0.234375 -4.25q-0.046875 -1.828125 -0.953125 -2.765625q-0.890625 -0.953125 -2.171875 -0.953125q-1.375 0 -2.28125 1.0q-0.890625 1.0 -0.875 2.71875l6.28125 0zm22.06517 9.3125l-4.203125 0l0 -8.109375q0 -2.578125 -0.265625 -3.328125q-0.265625 -0.765625 -0.875 -1.171875q-0.609375 -0.421875 -1.46875 -0.421875q-1.09375 0 -1.96875 0.59375q-0.859375 0.59375 -1.1875 1.59375q-0.3125 0.984375 -0.3125 3.640625l0 7.203125l-4.203125 0l0 -15.890625l3.90625 0l0 2.328125q2.078125 -2.6875 5.234375 -2.6875q1.390625 0 2.546875 0.5q1.15625 0.5 1.75 1.28125q0.59375 0.765625 0.8125 1.765625q0.234375 0.984375 0.234375 2.828125l0 9.875zm11.554199 -15.890625l0 3.34375l-2.875 0l0 6.40625q0 1.953125 0.078125 2.28125q0.09375 0.3125 0.375 0.53125q0.296875 0.203125 0.71875 0.203125q0.59375 0 1.6875 -0.40625l0.359375 3.265625q-1.453125 0.625 -3.3125 0.625q-1.140625 0 -2.0625 -0.375q-0.90625 -0.390625 -1.3437653 -0.984375q-0.421875 -0.609375 -0.578125 -1.65625q-0.140625 -0.734375 -0.140625 -2.953125l0 -6.9375l-1.921875 0l0 -3.34375l1.921875 0l0 -3.171875l4.2187653 -2.453125l0 5.625l2.875 0z" fill-rule="nonzero"/><path fill="#999999" d="m130.34908 158.24147l17.05513 -17.055115l17.055115 17.055115l-10.383499 0l0 21.448822l10.383499 0l-17.055115 17.055115l-17.05513 -17.055115l10.383499 0l0 -21.448822z" fill-rule="evenodd"/><path stroke="#000000" stroke-width="1.0" stroke-linejoin="round" stroke-linecap="butt" d="m130.34908 158.24147l17.05513 -17.055115l17.055115 17.055115l-10.383499 0l0 21.448822l10.383499 0l-17.055115 17.055115l-17.05513 -17.055115l10.383499 0l0 -21.448822z" fill-rule="evenodd"/><path fill="#000000" fill-opacity="0.0" d="m482.3727 56.91601l771.77954 0l0 90.04724l-771.77954 0z" fill-rule="evenodd"/></g></svg>